# xmcd
#
# Track frame offsets:
#	150
#	13053
#	26464
#	40977
#	53977
#	63678
#	77047
#	88947
#	100057
#	114419
#	129820
#	142449
#	156233
#	170886
#	185547
#	200318
#	215485
#	228251
#	244183
#	259243
#	273327
#	287056
#	300893
#	314916
#	329423
#
# Disc length: 4572 seconds
# Revision: 0
# Processed by: cddbd v1.5.2PL0 Copyright (c) Steve Scherf et al.
# Submitted via: dBpowerAMP V12.0
#
DISCID=7611da19
DTITLE=Bo Carter - Bo Carter disc 4
DYEAR=2011
DGENRE=Blues
TTITLE0=Pussy Cat Blues
TTITLE1=The Ins and Outs of My Girl
TTITLE2=Bo Carter's Advice
TTITLE3=Doubled Up In a Knot
TTITLE4=Your Biscuits are Big Enough for Me
TTITLE5=Don't Mash My Digger So Deep
TTITLE6=Flea on Me
TTITLE7=Got to Work Somewhere
TTITLE8=Shake 'Em On Down
TTITLE9=Whiskey Blues
TTITLE10=Shoo That Chicken
TTITLE11=Old Devil
TTITLE12=Country Fool
TTITLE13=Santa Claus
TTITLE14=Be My Salty Dog
TTITLE15=Ways Like a Craw Fish
TTITLE16=Lucille, Lucille
TTITLE17=The County Farm Blues
TTITLE18=Border of New Mexico Blues
TTITLE19=Arrangement for Me Blues
TTITLE20=Trouble, Oh Trouble
TTITLE21=My Baby
TTITLE22=Policy Blues
TTITLE23=Tush Hog Blues
TTITLE24=What You Want Your Daddy To Do
EXTD=
EXTT0=
EXTT1=
EXTT2=
EXTT3=
EXTT4=
EXTT5=
EXTT6=
EXTT7=
EXTT8=
EXTT9=
EXTT10=
EXTT11=
EXTT12=
EXTT13=
EXTT14=
EXTT15=
EXTT16=
EXTT17=
EXTT18=
EXTT19=
EXTT20=
EXTT21=
EXTT22=
EXTT23=
EXTT24=
PLAYORDER=
